<mxfile host="app.diagrams.net" modified="2021-05-13T08:56:34.423Z" agent="5.0 (X11)" etag="z6wI4NmbIExJX869FeSs" version="14.6.12" type="github">
  <diagram id="1vEWWUkTscpkUTFqP1_E" name="Page-1">
    <mxGraphModel dx="1383" dy="770" grid="0" gridSize="10" guides="1" tooltips="1" connect="1" arrows="1" fold="1" page="1" pageScale="1" pageWidth="850" pageHeight="1100" background="#ffffff" math="0" shadow="0">
      <root>
        <mxCell id="0" />
        <mxCell id="1" parent="0" />
        <mxCell id="oy_LNQQI-PK7_iyzJ05N-128" style="edgeStyle=orthogonalEdgeStyle;rounded=0;orthogonalLoop=1;jettySize=auto;html=1;entryX=0.5;entryY=1;entryDx=0;entryDy=0;exitX=0.831;exitY=0.919;exitDx=0;exitDy=0;exitPerimeter=0;" edge="1" parent="1" source="oy_LNQQI-PK7_iyzJ05N-176" target="oy_LNQQI-PK7_iyzJ05N-161">
          <mxGeometry relative="1" as="geometry">
            <mxPoint x="672" y="504.5" as="sourcePoint" />
            <Array as="points">
              <mxPoint x="541" y="505" />
              <mxPoint x="731" y="505" />
              <mxPoint x="731" y="503" />
              <mxPoint x="798" y="503" />
            </Array>
          </mxGeometry>
        </mxCell>
        <mxCell id="oy_LNQQI-PK7_iyzJ05N-129" value="Thẻ học sinh" style="edgeLabel;html=1;align=center;verticalAlign=middle;resizable=0;points=[];" vertex="1" connectable="0" parent="oy_LNQQI-PK7_iyzJ05N-128">
          <mxGeometry x="0.0501" y="-1" relative="1" as="geometry">
            <mxPoint x="2" y="-2" as="offset" />
          </mxGeometry>
        </mxCell>
        <mxCell id="oy_LNQQI-PK7_iyzJ05N-130" style="edgeStyle=orthogonalEdgeStyle;rounded=0;orthogonalLoop=1;jettySize=auto;html=1;entryX=0.942;entryY=1.017;entryDx=0;entryDy=0;exitX=0.693;exitY=0.987;exitDx=0;exitDy=0;entryPerimeter=0;exitPerimeter=0;" edge="1" parent="1" source="oy_LNQQI-PK7_iyzJ05N-176" target="oy_LNQQI-PK7_iyzJ05N-161">
          <mxGeometry relative="1" as="geometry">
            <Array as="points">
              <mxPoint x="518" y="573" />
              <mxPoint x="851" y="573" />
            </Array>
            <mxPoint x="672" y="575.5" as="sourcePoint" />
          </mxGeometry>
        </mxCell>
        <mxCell id="oy_LNQQI-PK7_iyzJ05N-131" value="Lịch thi học kì (MB3)" style="edgeLabel;html=1;align=center;verticalAlign=middle;resizable=0;points=[];" vertex="1" connectable="0" parent="oy_LNQQI-PK7_iyzJ05N-130">
          <mxGeometry x="-0.1368" y="-2" relative="1" as="geometry">
            <mxPoint x="31" y="-1" as="offset" />
          </mxGeometry>
        </mxCell>
        <mxCell id="oy_LNQQI-PK7_iyzJ05N-132" style="edgeStyle=orthogonalEdgeStyle;rounded=0;orthogonalLoop=1;jettySize=auto;html=1;entryX=0.75;entryY=0;entryDx=0;entryDy=0;exitX=0.5;exitY=0;exitDx=0;exitDy=0;" edge="1" parent="1" source="oy_LNQQI-PK7_iyzJ05N-176" target="oy_LNQQI-PK7_iyzJ05N-161">
          <mxGeometry relative="1" as="geometry">
            <Array as="points">
              <mxPoint x="486" y="160" />
              <mxPoint x="828" y="160" />
            </Array>
            <mxPoint x="421" y="241" as="sourcePoint" />
          </mxGeometry>
        </mxCell>
        <mxCell id="oy_LNQQI-PK7_iyzJ05N-133" value="Kết quả học tập" style="edgeLabel;html=1;align=center;verticalAlign=middle;resizable=0;points=[];" vertex="1" connectable="0" parent="oy_LNQQI-PK7_iyzJ05N-132">
          <mxGeometry x="-0.0889" y="-1" relative="1" as="geometry">
            <mxPoint x="8" y="-2" as="offset" />
          </mxGeometry>
        </mxCell>
        <mxCell id="oy_LNQQI-PK7_iyzJ05N-134" style="edgeStyle=orthogonalEdgeStyle;rounded=0;orthogonalLoop=1;jettySize=auto;html=1;entryX=0.375;entryY=-0.017;entryDx=0;entryDy=0;labelPosition=center;verticalLabelPosition=middle;align=center;verticalAlign=middle;exitX=0.223;exitY=0.09;exitDx=0;exitDy=0;exitPerimeter=0;entryPerimeter=0;" edge="1" parent="1" target="oy_LNQQI-PK7_iyzJ05N-152" source="oy_LNQQI-PK7_iyzJ05N-176">
          <mxGeometry relative="1" as="geometry">
            <Array as="points">
              <mxPoint x="440" y="189" />
              <mxPoint x="100" y="189" />
            </Array>
            <mxPoint x="372.57359312880726" y="242.7157287525381" as="sourcePoint" />
          </mxGeometry>
        </mxCell>
        <mxCell id="oy_LNQQI-PK7_iyzJ05N-135" value="&lt;div align=&quot;right&quot;&gt;Báo cáo thống kê kết quả học tập&lt;br&gt;&lt;/div&gt;&amp;nbsp;(MB8)" style="edgeLabel;html=1;align=center;verticalAlign=middle;resizable=0;points=[];" vertex="1" connectable="0" parent="oy_LNQQI-PK7_iyzJ05N-134">
          <mxGeometry x="0.2477" relative="1" as="geometry">
            <mxPoint x="97.68" y="-1" as="offset" />
          </mxGeometry>
        </mxCell>
        <mxCell id="oy_LNQQI-PK7_iyzJ05N-136" style="edgeStyle=orthogonalEdgeStyle;rounded=0;orthogonalLoop=1;jettySize=auto;html=1;entryX=0.75;entryY=1;entryDx=0;entryDy=0;align=right;exitX=-0.006;exitY=0.594;exitDx=0;exitDy=0;exitPerimeter=0;" edge="1" parent="1" source="oy_LNQQI-PK7_iyzJ05N-176" target="oy_LNQQI-PK7_iyzJ05N-152">
          <mxGeometry relative="1" as="geometry">
            <Array as="points">
              <mxPoint x="402" y="492" />
              <mxPoint x="145" y="492" />
            </Array>
            <mxPoint x="243.57359312880726" y="484.2842712474617" as="sourcePoint" />
          </mxGeometry>
        </mxCell>
        <mxCell id="oy_LNQQI-PK7_iyzJ05N-137" value="Yêu cầu sửa điểm" style="edgeLabel;html=1;align=center;verticalAlign=middle;resizable=0;points=[];" vertex="1" connectable="0" parent="oy_LNQQI-PK7_iyzJ05N-136">
          <mxGeometry x="0.1698" y="-2" relative="1" as="geometry">
            <mxPoint x="26" y="3" as="offset" />
          </mxGeometry>
        </mxCell>
        <mxCell id="oy_LNQQI-PK7_iyzJ05N-138" style="edgeStyle=orthogonalEdgeStyle;rounded=0;orthogonalLoop=1;jettySize=auto;html=1;entryX=0.5;entryY=1;entryDx=0;entryDy=0;align=right;exitX=0.241;exitY=0.97;exitDx=0;exitDy=0;exitPerimeter=0;" edge="1" parent="1" source="oy_LNQQI-PK7_iyzJ05N-176" target="oy_LNQQI-PK7_iyzJ05N-152">
          <mxGeometry relative="1" as="geometry">
            <Array as="points">
              <mxPoint x="443" y="571" />
              <mxPoint x="115" y="571" />
            </Array>
            <mxPoint x="487" y="509" as="sourcePoint" />
            <mxPoint x="233" y="795" as="targetPoint" />
          </mxGeometry>
        </mxCell>
        <mxCell id="oy_LNQQI-PK7_iyzJ05N-139" value="Danh sách lớp học (MB1)" style="edgeLabel;html=1;align=center;verticalAlign=middle;resizable=0;points=[];" vertex="1" connectable="0" parent="oy_LNQQI-PK7_iyzJ05N-138">
          <mxGeometry x="-0.0667" relative="1" as="geometry">
            <mxPoint x="-9" y="-2" as="offset" />
          </mxGeometry>
        </mxCell>
        <mxCell id="oy_LNQQI-PK7_iyzJ05N-140" style="edgeStyle=orthogonalEdgeStyle;rounded=0;orthogonalLoop=1;jettySize=auto;html=1;entryX=0.25;entryY=1;entryDx=0;entryDy=0;align=right;exitX=0.5;exitY=1;exitDx=0;exitDy=0;" edge="1" parent="1" source="oy_LNQQI-PK7_iyzJ05N-176" target="oy_LNQQI-PK7_iyzJ05N-152">
          <mxGeometry relative="1" as="geometry">
            <Array as="points">
              <mxPoint x="486" y="642" />
              <mxPoint x="85" y="642" />
            </Array>
            <mxPoint x="539" y="503.03999999999996" as="sourcePoint" />
            <mxPoint x="293" y="795" as="targetPoint" />
          </mxGeometry>
        </mxCell>
        <mxCell id="oy_LNQQI-PK7_iyzJ05N-141" value="Lịch thi dự kiến (MB3)" style="edgeLabel;html=1;align=center;verticalAlign=middle;resizable=0;points=[];" vertex="1" connectable="0" parent="oy_LNQQI-PK7_iyzJ05N-140">
          <mxGeometry x="0.1113" y="-2" relative="1" as="geometry">
            <mxPoint x="42" as="offset" />
          </mxGeometry>
        </mxCell>
        <mxCell id="oy_LNQQI-PK7_iyzJ05N-142" style="edgeStyle=orthogonalEdgeStyle;orthogonalLoop=1;jettySize=auto;html=1;exitX=0.625;exitY=1.05;exitDx=0;exitDy=0;rounded=0;fontStyle=0;entryX=0.102;entryY=0.833;entryDx=0;entryDy=0;exitPerimeter=0;entryPerimeter=0;" edge="1" parent="1" source="oy_LNQQI-PK7_iyzJ05N-152" target="oy_LNQQI-PK7_iyzJ05N-176">
          <mxGeometry relative="1" as="geometry">
            <mxPoint x="286" y="496" as="targetPoint" />
            <Array as="points">
              <mxPoint x="130" y="538" />
              <mxPoint x="420" y="538" />
            </Array>
          </mxGeometry>
        </mxCell>
        <mxCell id="oy_LNQQI-PK7_iyzJ05N-143" value="Xác nhận sửa điểm" style="edgeLabel;html=1;align=center;verticalAlign=middle;resizable=0;points=[];" vertex="1" connectable="0" parent="oy_LNQQI-PK7_iyzJ05N-142">
          <mxGeometry x="-0.1342" y="4" relative="1" as="geometry">
            <mxPoint x="34" y="2" as="offset" />
          </mxGeometry>
        </mxCell>
        <mxCell id="oy_LNQQI-PK7_iyzJ05N-144" style="edgeStyle=orthogonalEdgeStyle;rounded=0;orthogonalLoop=1;jettySize=auto;html=1;align=right;entryX=0.398;entryY=1.03;entryDx=0;entryDy=0;exitX=0.408;exitY=0.983;exitDx=0;exitDy=0;exitPerimeter=0;entryPerimeter=0;" edge="1" parent="1" source="oy_LNQQI-PK7_iyzJ05N-152" target="oy_LNQQI-PK7_iyzJ05N-176">
          <mxGeometry relative="1" as="geometry">
            <Array as="points">
              <mxPoint x="104" y="606" />
              <mxPoint x="469" y="606" />
            </Array>
            <mxPoint x="523.04" y="499.03999999999996" as="targetPoint" />
            <mxPoint x="107" y="455" as="sourcePoint" />
          </mxGeometry>
        </mxCell>
        <mxCell id="oy_LNQQI-PK7_iyzJ05N-145" value="Danh sách lớp học được phê duyệt" style="edgeLabel;html=1;align=center;verticalAlign=middle;resizable=0;points=[];" vertex="1" connectable="0" parent="oy_LNQQI-PK7_iyzJ05N-144">
          <mxGeometry x="-0.0755" y="2" relative="1" as="geometry">
            <mxPoint x="28" y="-3" as="offset" />
          </mxGeometry>
        </mxCell>
        <mxCell id="oy_LNQQI-PK7_iyzJ05N-146" style="edgeStyle=orthogonalEdgeStyle;rounded=0;orthogonalLoop=1;jettySize=auto;html=1;exitX=0.075;exitY=1;exitDx=0;exitDy=0;align=right;entryX=0.627;entryY=1.013;entryDx=0;entryDy=0;entryPerimeter=0;exitPerimeter=0;" edge="1" parent="1" source="oy_LNQQI-PK7_iyzJ05N-152" target="oy_LNQQI-PK7_iyzJ05N-176">
          <mxGeometry relative="1" as="geometry">
            <Array as="points">
              <mxPoint x="64" y="679" />
              <mxPoint x="507" y="679" />
            </Array>
            <mxPoint x="562.04" y="507.03999999999996" as="targetPoint" />
            <mxPoint x="323" y="795" as="sourcePoint" />
          </mxGeometry>
        </mxCell>
        <mxCell id="oy_LNQQI-PK7_iyzJ05N-147" value="Lịch thi được xác nhận" style="edgeLabel;html=1;align=center;verticalAlign=middle;resizable=0;points=[];" vertex="1" connectable="0" parent="oy_LNQQI-PK7_iyzJ05N-146">
          <mxGeometry x="-0.0792" relative="1" as="geometry">
            <mxPoint x="29" y="-2" as="offset" />
          </mxGeometry>
        </mxCell>
        <mxCell id="oy_LNQQI-PK7_iyzJ05N-148" style="edgeStyle=orthogonalEdgeStyle;rounded=0;orthogonalLoop=1;jettySize=auto;html=1;exitX=0.183;exitY=-0.017;exitDx=0;exitDy=0;entryX=0.38;entryY=0.004;entryDx=0;entryDy=0;entryPerimeter=0;exitPerimeter=0;" edge="1" parent="1" source="oy_LNQQI-PK7_iyzJ05N-152" target="oy_LNQQI-PK7_iyzJ05N-176">
          <mxGeometry relative="1" as="geometry">
            <Array as="points">
              <mxPoint x="77" y="165" />
              <mxPoint x="466" y="165" />
            </Array>
            <mxPoint x="394" y="235" as="targetPoint" />
          </mxGeometry>
        </mxCell>
        <mxCell id="oy_LNQQI-PK7_iyzJ05N-149" value="Yêu cầu báo cáo kết quả thống kê" style="edgeLabel;html=1;align=center;verticalAlign=middle;resizable=0;points=[];" vertex="1" connectable="0" parent="oy_LNQQI-PK7_iyzJ05N-148">
          <mxGeometry x="0.0873" relative="1" as="geometry">
            <mxPoint as="offset" />
          </mxGeometry>
        </mxCell>
        <mxCell id="oy_LNQQI-PK7_iyzJ05N-150" style="edgeStyle=orthogonalEdgeStyle;rounded=0;orthogonalLoop=1;jettySize=auto;html=1;exitX=0.608;exitY=-0.017;exitDx=0;exitDy=0;entryX=0;entryY=0;entryDx=0;entryDy=0;exitPerimeter=0;" edge="1" parent="1" source="oy_LNQQI-PK7_iyzJ05N-152" target="oy_LNQQI-PK7_iyzJ05N-176">
          <mxGeometry relative="1" as="geometry">
            <Array as="points">
              <mxPoint x="128" y="221" />
              <mxPoint x="427" y="221" />
            </Array>
            <mxPoint x="228.4000000000001" y="471.20000000000005" as="targetPoint" />
          </mxGeometry>
        </mxCell>
        <mxCell id="oy_LNQQI-PK7_iyzJ05N-151" value="Yêu cầu báo cáo điê,r" style="edgeLabel;html=1;align=center;verticalAlign=middle;resizable=0;points=[];" vertex="1" connectable="0" parent="oy_LNQQI-PK7_iyzJ05N-150">
          <mxGeometry x="0.2867" relative="1" as="geometry">
            <mxPoint x="-87" y="-2" as="offset" />
          </mxGeometry>
        </mxCell>
        <mxCell id="oy_LNQQI-PK7_iyzJ05N-152" value="BAN GIÁM HIỆU" style="rounded=0;whiteSpace=wrap;html=1;" vertex="1" parent="1">
          <mxGeometry x="55" y="343" width="120" height="60" as="geometry" />
        </mxCell>
        <mxCell id="oy_LNQQI-PK7_iyzJ05N-153" style="edgeStyle=orthogonalEdgeStyle;rounded=0;orthogonalLoop=1;jettySize=auto;html=1;exitX=0.25;exitY=1;exitDx=0;exitDy=0;entryX=0.928;entryY=0.816;entryDx=0;entryDy=0;entryPerimeter=0;" edge="1" parent="1" source="oy_LNQQI-PK7_iyzJ05N-161" target="oy_LNQQI-PK7_iyzJ05N-176">
          <mxGeometry relative="1" as="geometry">
            <Array as="points">
              <mxPoint x="768" y="474" />
              <mxPoint x="557" y="474" />
            </Array>
            <mxPoint x="596.4264068711927" y="492.2842712474617" as="targetPoint" />
          </mxGeometry>
        </mxCell>
        <mxCell id="oy_LNQQI-PK7_iyzJ05N-154" value="Đăng kí học tập" style="edgeLabel;html=1;align=center;verticalAlign=middle;resizable=0;points=[];" vertex="1" connectable="0" parent="oy_LNQQI-PK7_iyzJ05N-153">
          <mxGeometry x="-0.0727" y="2" relative="1" as="geometry">
            <mxPoint x="7" as="offset" />
          </mxGeometry>
        </mxCell>
        <mxCell id="oy_LNQQI-PK7_iyzJ05N-155" style="edgeStyle=orthogonalEdgeStyle;rounded=0;orthogonalLoop=1;jettySize=auto;html=1;exitX=0.25;exitY=0;exitDx=0;exitDy=0;entryX=0.765;entryY=0.064;entryDx=0;entryDy=0;entryPerimeter=0;" edge="1" parent="1" source="oy_LNQQI-PK7_iyzJ05N-161" target="oy_LNQQI-PK7_iyzJ05N-176">
          <mxGeometry relative="1" as="geometry">
            <Array as="points">
              <mxPoint x="768" y="218" />
              <mxPoint x="530" y="218" />
            </Array>
            <mxPoint x="471.03999999999996" y="254.03999999999996" as="targetPoint" />
          </mxGeometry>
        </mxCell>
        <mxCell id="oy_LNQQI-PK7_iyzJ05N-156" value="Thi học kì" style="edgeLabel;html=1;align=center;verticalAlign=middle;resizable=0;points=[];" vertex="1" connectable="0" parent="oy_LNQQI-PK7_iyzJ05N-155">
          <mxGeometry x="0.3277" y="2" relative="1" as="geometry">
            <mxPoint x="71" y="2" as="offset" />
          </mxGeometry>
        </mxCell>
        <mxCell id="oy_LNQQI-PK7_iyzJ05N-157" style="edgeStyle=orthogonalEdgeStyle;rounded=0;orthogonalLoop=1;jettySize=auto;html=1;exitX=0.75;exitY=1;exitDx=0;exitDy=0;entryX=0.765;entryY=0.962;entryDx=0;entryDy=0;entryPerimeter=0;" edge="1" parent="1" source="oy_LNQQI-PK7_iyzJ05N-161" target="oy_LNQQI-PK7_iyzJ05N-176">
          <mxGeometry relative="1" as="geometry">
            <Array as="points">
              <mxPoint x="828" y="541" />
              <mxPoint x="530" y="541" />
            </Array>
            <mxPoint x="676" y="541" as="targetPoint" />
          </mxGeometry>
        </mxCell>
        <mxCell id="oy_LNQQI-PK7_iyzJ05N-158" value="Yêu cầu licj thi học kì" style="edgeLabel;html=1;align=center;verticalAlign=middle;resizable=0;points=[];" vertex="1" connectable="0" parent="oy_LNQQI-PK7_iyzJ05N-157">
          <mxGeometry x="0.2282" y="-2" relative="1" as="geometry">
            <mxPoint x="52" y="6" as="offset" />
          </mxGeometry>
        </mxCell>
        <mxCell id="oy_LNQQI-PK7_iyzJ05N-159" style="edgeStyle=orthogonalEdgeStyle;rounded=0;orthogonalLoop=1;jettySize=auto;html=1;startArrow=none;entryX=0.633;entryY=0.004;entryDx=0;entryDy=0;entryPerimeter=0;" edge="1" parent="1" target="oy_LNQQI-PK7_iyzJ05N-176">
          <mxGeometry relative="1" as="geometry">
            <mxPoint x="797" y="338" as="sourcePoint" />
            <Array as="points">
              <mxPoint x="797" y="187" />
              <mxPoint x="508" y="187" />
            </Array>
            <mxPoint x="440.44000000000005" y="234.20000000000005" as="targetPoint" />
          </mxGeometry>
        </mxCell>
        <mxCell id="oy_LNQQI-PK7_iyzJ05N-160" value="Tham gia học tập" style="edgeLabel;html=1;align=center;verticalAlign=middle;resizable=0;points=[];" vertex="1" connectable="0" parent="oy_LNQQI-PK7_iyzJ05N-159">
          <mxGeometry x="0.0919" y="1" relative="1" as="geometry">
            <mxPoint x="15" y="1" as="offset" />
          </mxGeometry>
        </mxCell>
        <mxCell id="oy_LNQQI-PK7_iyzJ05N-161" value="HỌC SINH" style="rounded=0;whiteSpace=wrap;html=1;" vertex="1" parent="1">
          <mxGeometry x="738" y="340" width="120" height="60" as="geometry" />
        </mxCell>
        <mxCell id="oy_LNQQI-PK7_iyzJ05N-162" style="edgeStyle=orthogonalEdgeStyle;rounded=0;orthogonalLoop=1;jettySize=auto;html=1;exitX=1;exitY=0;exitDx=0;exitDy=0;entryX=0.117;entryY=-0.017;entryDx=0;entryDy=0;entryPerimeter=0;" edge="1" parent="1" source="oy_LNQQI-PK7_iyzJ05N-176" target="oy_LNQQI-PK7_iyzJ05N-161">
          <mxGeometry relative="1" as="geometry">
            <Array as="points">
              <mxPoint x="545" y="254" />
              <mxPoint x="752" y="254" />
            </Array>
            <mxPoint x="475" y="271" as="sourcePoint" />
          </mxGeometry>
        </mxCell>
        <mxCell id="oy_LNQQI-PK7_iyzJ05N-163" value="Kết quả thi (MB4)" style="edgeLabel;html=1;align=center;verticalAlign=middle;resizable=0;points=[];" vertex="1" connectable="0" parent="oy_LNQQI-PK7_iyzJ05N-162">
          <mxGeometry x="-0.3992" relative="1" as="geometry">
            <mxPoint x="69" as="offset" />
          </mxGeometry>
        </mxCell>
        <mxCell id="oy_LNQQI-PK7_iyzJ05N-166" style="edgeStyle=orthogonalEdgeStyle;rounded=0;orthogonalLoop=1;jettySize=auto;html=1;exitX=0.072;exitY=0.244;exitDx=0;exitDy=0;entryX=0.858;entryY=0;entryDx=0;entryDy=0;exitPerimeter=0;entryPerimeter=0;" edge="1" parent="1" source="oy_LNQQI-PK7_iyzJ05N-176" target="oy_LNQQI-PK7_iyzJ05N-152">
          <mxGeometry relative="1" as="geometry">
            <Array as="points">
              <mxPoint x="415" y="252" />
              <mxPoint x="158" y="252" />
            </Array>
            <mxPoint x="243.57359312880726" y="484.2842712474617" as="sourcePoint" />
          </mxGeometry>
        </mxCell>
        <mxCell id="oy_LNQQI-PK7_iyzJ05N-167" value="Báo cáo điểm (MB4)" style="edgeLabel;html=1;align=center;verticalAlign=middle;resizable=0;points=[];" vertex="1" connectable="0" parent="oy_LNQQI-PK7_iyzJ05N-166">
          <mxGeometry x="-0.0859" y="2" relative="1" as="geometry">
            <mxPoint x="-46" y="-2" as="offset" />
          </mxGeometry>
        </mxCell>
        <mxCell id="oy_LNQQI-PK7_iyzJ05N-176" value="Quản lý điểm học sinh tiểu học" style="ellipse;whiteSpace=wrap;html=1;" vertex="1" parent="1">
          <mxGeometry x="403" y="314.5" width="166" height="117" as="geometry" />
        </mxCell>
      </root>
    </mxGraphModel>
  </diagram>
</mxfile>
